<mxfile host="app.diagrams.net" modified="2023-06-06T08:12:57.205Z" agent="Mozilla/5.0 (Windows NT 10.0; Win64; x64) AppleWebKit/537.36 (KHTML, like Gecko) Chrome/114.0.0.0 Safari/537.36 Edg/114.0.1823.37" etag="P-UIuzKI3UVA2sJGfP6s" version="21.3.7" type="device">
  <diagram name="Страница 1" id="Vx3QZ-h_ieIK0PURBsIh">
    <mxGraphModel dx="1687" dy="2080" grid="1" gridSize="10" guides="1" tooltips="1" connect="1" arrows="1" fold="1" page="1" pageScale="1" pageWidth="827" pageHeight="1169" math="0" shadow="0">
      <root>
        <mxCell id="0" />
        <mxCell id="1" parent="0" />
        <mxCell id="TfH3fV2TuEvvbLqG832e-1" value="Лот" style="swimlane;fontStyle=1;align=center;verticalAlign=top;childLayout=stackLayout;horizontal=1;startSize=26;horizontalStack=0;resizeParent=1;resizeParentMax=0;resizeLast=0;collapsible=1;marginBottom=0;whiteSpace=wrap;html=1;" vertex="1" parent="1">
          <mxGeometry x="30" y="-20" width="160" height="164" as="geometry" />
        </mxCell>
        <mxCell id="TfH3fV2TuEvvbLqG832e-33" value="+ название: строка" style="text;strokeColor=none;fillColor=none;align=left;verticalAlign=top;spacingLeft=4;spacingRight=4;overflow=hidden;rotatable=0;points=[[0,0.5],[1,0.5]];portConstraint=eastwest;whiteSpace=wrap;html=1;" vertex="1" parent="TfH3fV2TuEvvbLqG832e-1">
          <mxGeometry y="26" width="160" height="26" as="geometry" />
        </mxCell>
        <mxCell id="TfH3fV2TuEvvbLqG832e-57" value="- исходы: исход[]" style="text;strokeColor=none;fillColor=none;align=left;verticalAlign=top;spacingLeft=4;spacingRight=4;overflow=hidden;rotatable=0;points=[[0,0.5],[1,0.5]];portConstraint=eastwest;whiteSpace=wrap;html=1;" vertex="1" parent="TfH3fV2TuEvvbLqG832e-1">
          <mxGeometry y="52" width="160" height="26" as="geometry" />
        </mxCell>
        <mxCell id="TfH3fV2TuEvvbLqG832e-56" value="- пари: Пари[]" style="text;strokeColor=none;fillColor=none;align=left;verticalAlign=top;spacingLeft=4;spacingRight=4;overflow=hidden;rotatable=0;points=[[0,0.5],[1,0.5]];portConstraint=eastwest;whiteSpace=wrap;html=1;" vertex="1" parent="TfH3fV2TuEvvbLqG832e-1">
          <mxGeometry y="78" width="160" height="26" as="geometry" />
        </mxCell>
        <mxCell id="TfH3fV2TuEvvbLqG832e-3" value="" style="line;strokeWidth=1;fillColor=none;align=left;verticalAlign=middle;spacingTop=-1;spacingLeft=3;spacingRight=3;rotatable=0;labelPosition=right;points=[];portConstraint=eastwest;strokeColor=inherit;" vertex="1" parent="TfH3fV2TuEvvbLqG832e-1">
          <mxGeometry y="104" width="160" height="8" as="geometry" />
        </mxCell>
        <mxCell id="TfH3fV2TuEvvbLqG832e-4" value="+ выдатьИсход(): Исход" style="text;strokeColor=none;fillColor=none;align=left;verticalAlign=top;spacingLeft=4;spacingRight=4;overflow=hidden;rotatable=0;points=[[0,0.5],[1,0.5]];portConstraint=eastwest;whiteSpace=wrap;html=1;" vertex="1" parent="TfH3fV2TuEvvbLqG832e-1">
          <mxGeometry y="112" width="160" height="26" as="geometry" />
        </mxCell>
        <mxCell id="TfH3fV2TuEvvbLqG832e-55" value="+ достпуныеПари(): Пари[]" style="text;strokeColor=none;fillColor=none;align=left;verticalAlign=top;spacingLeft=4;spacingRight=4;overflow=hidden;rotatable=0;points=[[0,0.5],[1,0.5]];portConstraint=eastwest;whiteSpace=wrap;html=1;" vertex="1" parent="TfH3fV2TuEvvbLqG832e-1">
          <mxGeometry y="138" width="160" height="26" as="geometry" />
        </mxCell>
        <mxCell id="TfH3fV2TuEvvbLqG832e-45" value="" style="edgeStyle=orthogonalEdgeStyle;rounded=0;orthogonalLoop=1;jettySize=auto;html=1;endArrow=none;endFill=0;" edge="1" parent="1" source="TfH3fV2TuEvvbLqG832e-43" target="TfH3fV2TuEvvbLqG832e-1">
          <mxGeometry relative="1" as="geometry">
            <Array as="points">
              <mxPoint x="250" y="230" />
              <mxPoint x="250" y="-10" />
            </Array>
          </mxGeometry>
        </mxCell>
        <mxCell id="TfH3fV2TuEvvbLqG832e-46" value="1" style="edgeLabel;html=1;align=center;verticalAlign=middle;resizable=0;points=[];" vertex="1" connectable="0" parent="TfH3fV2TuEvvbLqG832e-45">
          <mxGeometry x="0.8804" y="2" relative="1" as="geometry">
            <mxPoint x="10" y="8" as="offset" />
          </mxGeometry>
        </mxCell>
        <mxCell id="TfH3fV2TuEvvbLqG832e-47" value="*" style="edgeLabel;html=1;align=center;verticalAlign=middle;resizable=0;points=[];" vertex="1" connectable="0" parent="TfH3fV2TuEvvbLqG832e-45">
          <mxGeometry x="-0.673" y="-2" relative="1" as="geometry">
            <mxPoint x="8" y="-4" as="offset" />
          </mxGeometry>
        </mxCell>
        <mxCell id="TfH3fV2TuEvvbLqG832e-5" value="Ставка" style="swimlane;fontStyle=1;align=center;verticalAlign=top;childLayout=stackLayout;horizontal=1;startSize=26;horizontalStack=0;resizeParent=1;resizeParentMax=0;resizeLast=0;collapsible=1;marginBottom=0;whiteSpace=wrap;html=1;" vertex="1" parent="1">
          <mxGeometry x="290" y="162" width="360" height="242" as="geometry" />
        </mxCell>
        <mxCell id="TfH3fV2TuEvvbLqG832e-6" value="+ игрок: Пользователь" style="text;strokeColor=none;fillColor=none;align=left;verticalAlign=top;spacingLeft=4;spacingRight=4;overflow=hidden;rotatable=0;points=[[0,0.5],[1,0.5]];portConstraint=eastwest;whiteSpace=wrap;html=1;" vertex="1" parent="TfH3fV2TuEvvbLqG832e-5">
          <mxGeometry y="26" width="360" height="26" as="geometry" />
        </mxCell>
        <mxCell id="TfH3fV2TuEvvbLqG832e-43" value="+ лот: Лот" style="text;strokeColor=none;fillColor=none;align=left;verticalAlign=top;spacingLeft=4;spacingRight=4;overflow=hidden;rotatable=0;points=[[0,0.5],[1,0.5]];portConstraint=eastwest;whiteSpace=wrap;html=1;" vertex="1" parent="TfH3fV2TuEvvbLqG832e-5">
          <mxGeometry y="52" width="360" height="26" as="geometry" />
        </mxCell>
        <mxCell id="TfH3fV2TuEvvbLqG832e-44" value="+ пари: Пари" style="text;strokeColor=none;fillColor=none;align=left;verticalAlign=top;spacingLeft=4;spacingRight=4;overflow=hidden;rotatable=0;points=[[0,0.5],[1,0.5]];portConstraint=eastwest;whiteSpace=wrap;html=1;" vertex="1" parent="TfH3fV2TuEvvbLqG832e-5">
          <mxGeometry y="78" width="360" height="26" as="geometry" />
        </mxCell>
        <mxCell id="TfH3fV2TuEvvbLqG832e-42" value="+ сумма: число" style="text;strokeColor=none;fillColor=none;align=left;verticalAlign=top;spacingLeft=4;spacingRight=4;overflow=hidden;rotatable=0;points=[[0,0.5],[1,0.5]];portConstraint=eastwest;whiteSpace=wrap;html=1;" vertex="1" parent="TfH3fV2TuEvvbLqG832e-5">
          <mxGeometry y="104" width="360" height="26" as="geometry" />
        </mxCell>
        <mxCell id="TfH3fV2TuEvvbLqG832e-41" value="+ дата: дата" style="text;strokeColor=none;fillColor=none;align=left;verticalAlign=top;spacingLeft=4;spacingRight=4;overflow=hidden;rotatable=0;points=[[0,0.5],[1,0.5]];portConstraint=eastwest;whiteSpace=wrap;html=1;" vertex="1" parent="TfH3fV2TuEvvbLqG832e-5">
          <mxGeometry y="130" width="360" height="26" as="geometry" />
        </mxCell>
        <mxCell id="TfH3fV2TuEvvbLqG832e-40" value="+ состояние: номер" style="text;strokeColor=none;fillColor=none;align=left;verticalAlign=top;spacingLeft=4;spacingRight=4;overflow=hidden;rotatable=0;points=[[0,0.5],[1,0.5]];portConstraint=eastwest;whiteSpace=wrap;html=1;" vertex="1" parent="TfH3fV2TuEvvbLqG832e-5">
          <mxGeometry y="156" width="360" height="26" as="geometry" />
        </mxCell>
        <mxCell id="TfH3fV2TuEvvbLqG832e-38" style="text;strokeColor=none;fillColor=none;align=left;verticalAlign=top;spacingLeft=4;spacingRight=4;overflow=hidden;rotatable=0;points=[[0,0.5],[1,0.5]];portConstraint=eastwest;whiteSpace=wrap;html=1;" vertex="1" parent="TfH3fV2TuEvvbLqG832e-5">
          <mxGeometry y="182" width="360" height="26" as="geometry" />
        </mxCell>
        <mxCell id="TfH3fV2TuEvvbLqG832e-7" value="" style="line;strokeWidth=1;fillColor=none;align=left;verticalAlign=middle;spacingTop=-1;spacingLeft=3;spacingRight=3;rotatable=0;labelPosition=right;points=[];portConstraint=eastwest;strokeColor=inherit;" vertex="1" parent="TfH3fV2TuEvvbLqG832e-5">
          <mxGeometry y="208" width="360" height="8" as="geometry" />
        </mxCell>
        <mxCell id="TfH3fV2TuEvvbLqG832e-8" value="+ определитьРезультат(Исход): Исозд_ставки" style="text;strokeColor=none;fillColor=none;align=left;verticalAlign=top;spacingLeft=4;spacingRight=4;overflow=hidden;rotatable=0;points=[[0,0.5],[1,0.5]];portConstraint=eastwest;whiteSpace=wrap;html=1;" vertex="1" parent="TfH3fV2TuEvvbLqG832e-5">
          <mxGeometry y="216" width="360" height="26" as="geometry" />
        </mxCell>
        <mxCell id="TfH3fV2TuEvvbLqG832e-9" value="Исход" style="swimlane;fontStyle=1;align=center;verticalAlign=top;childLayout=stackLayout;horizontal=1;startSize=26;horizontalStack=0;resizeParent=1;resizeParentMax=0;resizeLast=0;collapsible=1;marginBottom=0;whiteSpace=wrap;html=1;" vertex="1" parent="1">
          <mxGeometry x="20" y="230" width="210" height="112" as="geometry" />
        </mxCell>
        <mxCell id="TfH3fV2TuEvvbLqG832e-36" value="+ название: строка&amp;nbsp;" style="text;strokeColor=none;fillColor=none;align=left;verticalAlign=top;spacingLeft=4;spacingRight=4;overflow=hidden;rotatable=0;points=[[0,0.5],[1,0.5]];portConstraint=eastwest;whiteSpace=wrap;html=1;" vertex="1" parent="TfH3fV2TuEvvbLqG832e-9">
          <mxGeometry y="26" width="210" height="26" as="geometry" />
        </mxCell>
        <mxCell id="TfH3fV2TuEvvbLqG832e-35" value="+ коэффициент: число" style="text;strokeColor=none;fillColor=none;align=left;verticalAlign=top;spacingLeft=4;spacingRight=4;overflow=hidden;rotatable=0;points=[[0,0.5],[1,0.5]];portConstraint=eastwest;whiteSpace=wrap;html=1;" vertex="1" parent="TfH3fV2TuEvvbLqG832e-9">
          <mxGeometry y="52" width="210" height="26" as="geometry" />
        </mxCell>
        <mxCell id="TfH3fV2TuEvvbLqG832e-34" value="+ шанс: номер" style="text;strokeColor=none;fillColor=none;align=left;verticalAlign=top;spacingLeft=4;spacingRight=4;overflow=hidden;rotatable=0;points=[[0,0.5],[1,0.5]];portConstraint=eastwest;whiteSpace=wrap;html=1;" vertex="1" parent="TfH3fV2TuEvvbLqG832e-9">
          <mxGeometry y="78" width="210" height="26" as="geometry" />
        </mxCell>
        <mxCell id="TfH3fV2TuEvvbLqG832e-11" value="" style="line;strokeWidth=1;fillColor=none;align=left;verticalAlign=middle;spacingTop=-1;spacingLeft=3;spacingRight=3;rotatable=0;labelPosition=right;points=[];portConstraint=eastwest;strokeColor=inherit;" vertex="1" parent="TfH3fV2TuEvvbLqG832e-9">
          <mxGeometry y="104" width="210" height="8" as="geometry" />
        </mxCell>
        <mxCell id="TfH3fV2TuEvvbLqG832e-13" value="Исход_ставки" style="swimlane;fontStyle=1;align=center;verticalAlign=top;childLayout=stackLayout;horizontal=1;startSize=26;horizontalStack=0;resizeParent=1;resizeParentMax=0;resizeLast=0;collapsible=1;marginBottom=0;whiteSpace=wrap;html=1;" vertex="1" parent="1">
          <mxGeometry x="520" y="450" width="200" height="138" as="geometry" />
        </mxCell>
        <mxCell id="TfH3fV2TuEvvbLqG832e-14" value="+ ставка: Ставка" style="text;strokeColor=none;fillColor=none;align=left;verticalAlign=top;spacingLeft=4;spacingRight=4;overflow=hidden;rotatable=0;points=[[0,0.5],[1,0.5]];portConstraint=eastwest;whiteSpace=wrap;html=1;" vertex="1" parent="TfH3fV2TuEvvbLqG832e-13">
          <mxGeometry y="26" width="200" height="26" as="geometry" />
        </mxCell>
        <mxCell id="TfH3fV2TuEvvbLqG832e-64" value="+ победа: bool" style="text;strokeColor=none;fillColor=none;align=left;verticalAlign=top;spacingLeft=4;spacingRight=4;overflow=hidden;rotatable=0;points=[[0,0.5],[1,0.5]];portConstraint=eastwest;whiteSpace=wrap;html=1;" vertex="1" parent="TfH3fV2TuEvvbLqG832e-13">
          <mxGeometry y="52" width="200" height="26" as="geometry" />
        </mxCell>
        <mxCell id="TfH3fV2TuEvvbLqG832e-63" value="- коэффициент: число" style="text;strokeColor=none;fillColor=none;align=left;verticalAlign=top;spacingLeft=4;spacingRight=4;overflow=hidden;rotatable=0;points=[[0,0.5],[1,0.5]];portConstraint=eastwest;whiteSpace=wrap;html=1;" vertex="1" parent="TfH3fV2TuEvvbLqG832e-13">
          <mxGeometry y="78" width="200" height="26" as="geometry" />
        </mxCell>
        <mxCell id="TfH3fV2TuEvvbLqG832e-15" value="" style="line;strokeWidth=1;fillColor=none;align=left;verticalAlign=middle;spacingTop=-1;spacingLeft=3;spacingRight=3;rotatable=0;labelPosition=right;points=[];portConstraint=eastwest;strokeColor=inherit;" vertex="1" parent="TfH3fV2TuEvvbLqG832e-13">
          <mxGeometry y="104" width="200" height="8" as="geometry" />
        </mxCell>
        <mxCell id="TfH3fV2TuEvvbLqG832e-16" value="+ измениеБаланса(): число" style="text;strokeColor=none;fillColor=none;align=left;verticalAlign=top;spacingLeft=4;spacingRight=4;overflow=hidden;rotatable=0;points=[[0,0.5],[1,0.5]];portConstraint=eastwest;whiteSpace=wrap;html=1;" vertex="1" parent="TfH3fV2TuEvvbLqG832e-13">
          <mxGeometry y="112" width="200" height="26" as="geometry" />
        </mxCell>
        <mxCell id="TfH3fV2TuEvvbLqG832e-17" value="Пари" style="swimlane;fontStyle=1;align=center;verticalAlign=top;childLayout=stackLayout;horizontal=1;startSize=26;horizontalStack=0;resizeParent=1;resizeParentMax=0;resizeLast=0;collapsible=1;marginBottom=0;whiteSpace=wrap;html=1;" vertex="1" parent="1">
          <mxGeometry x="700" y="240" width="220" height="112" as="geometry" />
        </mxCell>
        <mxCell id="TfH3fV2TuEvvbLqG832e-18" value="+ название: строка" style="text;strokeColor=none;fillColor=none;align=left;verticalAlign=top;spacingLeft=4;spacingRight=4;overflow=hidden;rotatable=0;points=[[0,0.5],[1,0.5]];portConstraint=eastwest;whiteSpace=wrap;html=1;" vertex="1" parent="TfH3fV2TuEvvbLqG832e-17">
          <mxGeometry y="26" width="220" height="26" as="geometry" />
        </mxCell>
        <mxCell id="TfH3fV2TuEvvbLqG832e-62" value="- исходы: Исход[]" style="text;strokeColor=none;fillColor=none;align=left;verticalAlign=top;spacingLeft=4;spacingRight=4;overflow=hidden;rotatable=0;points=[[0,0.5],[1,0.5]];portConstraint=eastwest;whiteSpace=wrap;html=1;" vertex="1" parent="TfH3fV2TuEvvbLqG832e-17">
          <mxGeometry y="52" width="220" height="26" as="geometry" />
        </mxCell>
        <mxCell id="TfH3fV2TuEvvbLqG832e-19" value="" style="line;strokeWidth=1;fillColor=none;align=left;verticalAlign=middle;spacingTop=-1;spacingLeft=3;spacingRight=3;rotatable=0;labelPosition=right;points=[];portConstraint=eastwest;strokeColor=inherit;" vertex="1" parent="TfH3fV2TuEvvbLqG832e-17">
          <mxGeometry y="78" width="220" height="8" as="geometry" />
        </mxCell>
        <mxCell id="TfH3fV2TuEvvbLqG832e-20" value="+ относитьсяЛи(Исход): bool" style="text;strokeColor=none;fillColor=none;align=left;verticalAlign=top;spacingLeft=4;spacingRight=4;overflow=hidden;rotatable=0;points=[[0,0.5],[1,0.5]];portConstraint=eastwest;whiteSpace=wrap;html=1;" vertex="1" parent="TfH3fV2TuEvvbLqG832e-17">
          <mxGeometry y="86" width="220" height="26" as="geometry" />
        </mxCell>
        <mxCell id="TfH3fV2TuEvvbLqG832e-21" value="Пользовталь" style="swimlane;fontStyle=1;align=center;verticalAlign=top;childLayout=stackLayout;horizontal=1;startSize=26;horizontalStack=0;resizeParent=1;resizeParentMax=0;resizeLast=0;collapsible=1;marginBottom=0;whiteSpace=wrap;html=1;" vertex="1" parent="1">
          <mxGeometry x="420" y="-130" width="250" height="242" as="geometry" />
        </mxCell>
        <mxCell id="TfH3fV2TuEvvbLqG832e-22" value="+ логин: строка" style="text;strokeColor=none;fillColor=none;align=left;verticalAlign=top;spacingLeft=4;spacingRight=4;overflow=hidden;rotatable=0;points=[[0,0.5],[1,0.5]];portConstraint=eastwest;whiteSpace=wrap;html=1;" vertex="1" parent="TfH3fV2TuEvvbLqG832e-21">
          <mxGeometry y="26" width="250" height="26" as="geometry" />
        </mxCell>
        <mxCell id="TfH3fV2TuEvvbLqG832e-52" value="+ пароль: строка" style="text;strokeColor=none;fillColor=none;align=left;verticalAlign=top;spacingLeft=4;spacingRight=4;overflow=hidden;rotatable=0;points=[[0,0.5],[1,0.5]];portConstraint=eastwest;whiteSpace=wrap;html=1;" vertex="1" parent="TfH3fV2TuEvvbLqG832e-21">
          <mxGeometry y="52" width="250" height="26" as="geometry" />
        </mxCell>
        <mxCell id="TfH3fV2TuEvvbLqG832e-50" value="+ баланс: число" style="text;strokeColor=none;fillColor=none;align=left;verticalAlign=top;spacingLeft=4;spacingRight=4;overflow=hidden;rotatable=0;points=[[0,0.5],[1,0.5]];portConstraint=eastwest;whiteSpace=wrap;html=1;" vertex="1" parent="TfH3fV2TuEvvbLqG832e-21">
          <mxGeometry y="78" width="250" height="26" as="geometry" />
        </mxCell>
        <mxCell id="TfH3fV2TuEvvbLqG832e-49" value="+ роли: Роль[]" style="text;strokeColor=none;fillColor=none;align=left;verticalAlign=top;spacingLeft=4;spacingRight=4;overflow=hidden;rotatable=0;points=[[0,0.5],[1,0.5]];portConstraint=eastwest;whiteSpace=wrap;html=1;" vertex="1" parent="TfH3fV2TuEvvbLqG832e-21">
          <mxGeometry y="104" width="250" height="26" as="geometry" />
        </mxCell>
        <mxCell id="TfH3fV2TuEvvbLqG832e-69" value="+ бонусы: Бонус[]" style="text;strokeColor=none;fillColor=none;align=left;verticalAlign=top;spacingLeft=4;spacingRight=4;overflow=hidden;rotatable=0;points=[[0,0.5],[1,0.5]];portConstraint=eastwest;whiteSpace=wrap;html=1;" vertex="1" parent="TfH3fV2TuEvvbLqG832e-21">
          <mxGeometry y="130" width="250" height="26" as="geometry" />
        </mxCell>
        <mxCell id="TfH3fV2TuEvvbLqG832e-23" value="" style="line;strokeWidth=1;fillColor=none;align=left;verticalAlign=middle;spacingTop=-1;spacingLeft=3;spacingRight=3;rotatable=0;labelPosition=right;points=[];portConstraint=eastwest;strokeColor=inherit;" vertex="1" parent="TfH3fV2TuEvvbLqG832e-21">
          <mxGeometry y="156" width="250" height="8" as="geometry" />
        </mxCell>
        <mxCell id="TfH3fV2TuEvvbLqG832e-24" value="+ сделатьСтавку(Пари, Лот): Ставка" style="text;strokeColor=none;fillColor=none;align=left;verticalAlign=top;spacingLeft=4;spacingRight=4;overflow=hidden;rotatable=0;points=[[0,0.5],[1,0.5]];portConstraint=eastwest;whiteSpace=wrap;html=1;" vertex="1" parent="TfH3fV2TuEvvbLqG832e-21">
          <mxGeometry y="164" width="250" height="26" as="geometry" />
        </mxCell>
        <mxCell id="TfH3fV2TuEvvbLqG832e-54" value="+ изменитьБаланс(число)" style="text;strokeColor=none;fillColor=none;align=left;verticalAlign=top;spacingLeft=4;spacingRight=4;overflow=hidden;rotatable=0;points=[[0,0.5],[1,0.5]];portConstraint=eastwest;whiteSpace=wrap;html=1;" vertex="1" parent="TfH3fV2TuEvvbLqG832e-21">
          <mxGeometry y="190" width="250" height="26" as="geometry" />
        </mxCell>
        <mxCell id="TfH3fV2TuEvvbLqG832e-53" value="+ являетсяЛиИгроком(): bool" style="text;strokeColor=none;fillColor=none;align=left;verticalAlign=top;spacingLeft=4;spacingRight=4;overflow=hidden;rotatable=0;points=[[0,0.5],[1,0.5]];portConstraint=eastwest;whiteSpace=wrap;html=1;" vertex="1" parent="TfH3fV2TuEvvbLqG832e-21">
          <mxGeometry y="216" width="250" height="26" as="geometry" />
        </mxCell>
        <mxCell id="TfH3fV2TuEvvbLqG832e-29" value="Бонус" style="swimlane;fontStyle=1;align=center;verticalAlign=top;childLayout=stackLayout;horizontal=1;startSize=26;horizontalStack=0;resizeParent=1;resizeParentMax=0;resizeLast=0;collapsible=1;marginBottom=0;whiteSpace=wrap;html=1;" vertex="1" parent="1">
          <mxGeometry x="750" y="10" width="160" height="164" as="geometry" />
        </mxCell>
        <mxCell id="TfH3fV2TuEvvbLqG832e-30" value="+ название: строка" style="text;strokeColor=none;fillColor=none;align=left;verticalAlign=top;spacingLeft=4;spacingRight=4;overflow=hidden;rotatable=0;points=[[0,0.5],[1,0.5]];portConstraint=eastwest;whiteSpace=wrap;html=1;" vertex="1" parent="TfH3fV2TuEvvbLqG832e-29">
          <mxGeometry y="26" width="160" height="26" as="geometry" />
        </mxCell>
        <mxCell id="TfH3fV2TuEvvbLqG832e-67" value="+ коэфициет: число" style="text;strokeColor=none;fillColor=none;align=left;verticalAlign=top;spacingLeft=4;spacingRight=4;overflow=hidden;rotatable=0;points=[[0,0.5],[1,0.5]];portConstraint=eastwest;whiteSpace=wrap;html=1;" vertex="1" parent="TfH3fV2TuEvvbLqG832e-29">
          <mxGeometry y="52" width="160" height="26" as="geometry" />
        </mxCell>
        <mxCell id="TfH3fV2TuEvvbLqG832e-66" value="+ количество: число" style="text;strokeColor=none;fillColor=none;align=left;verticalAlign=top;spacingLeft=4;spacingRight=4;overflow=hidden;rotatable=0;points=[[0,0.5],[1,0.5]];portConstraint=eastwest;whiteSpace=wrap;html=1;" vertex="1" parent="TfH3fV2TuEvvbLqG832e-29">
          <mxGeometry y="78" width="160" height="26" as="geometry" />
        </mxCell>
        <mxCell id="TfH3fV2TuEvvbLqG832e-65" value="+ действуетДо: дата" style="text;strokeColor=none;fillColor=none;align=left;verticalAlign=top;spacingLeft=4;spacingRight=4;overflow=hidden;rotatable=0;points=[[0,0.5],[1,0.5]];portConstraint=eastwest;whiteSpace=wrap;html=1;" vertex="1" parent="TfH3fV2TuEvvbLqG832e-29">
          <mxGeometry y="104" width="160" height="26" as="geometry" />
        </mxCell>
        <mxCell id="TfH3fV2TuEvvbLqG832e-68" value="+ включен: bool" style="text;strokeColor=none;fillColor=none;align=left;verticalAlign=top;spacingLeft=4;spacingRight=4;overflow=hidden;rotatable=0;points=[[0,0.5],[1,0.5]];portConstraint=eastwest;whiteSpace=wrap;html=1;" vertex="1" parent="TfH3fV2TuEvvbLqG832e-29">
          <mxGeometry y="130" width="160" height="26" as="geometry" />
        </mxCell>
        <mxCell id="TfH3fV2TuEvvbLqG832e-31" value="" style="line;strokeWidth=1;fillColor=none;align=left;verticalAlign=middle;spacingTop=-1;spacingLeft=3;spacingRight=3;rotatable=0;labelPosition=right;points=[];portConstraint=eastwest;strokeColor=inherit;" vertex="1" parent="TfH3fV2TuEvvbLqG832e-29">
          <mxGeometry y="156" width="160" height="8" as="geometry" />
        </mxCell>
        <mxCell id="TfH3fV2TuEvvbLqG832e-37" value="" style="html=1;verticalAlign=bottom;endArrow=open;dashed=1;endSize=8;edgeStyle=elbowEdgeStyle;elbow=vertical;curved=0;rounded=0;" edge="1" parent="1" source="TfH3fV2TuEvvbLqG832e-1" target="TfH3fV2TuEvvbLqG832e-9">
          <mxGeometry relative="1" as="geometry">
            <mxPoint x="155" y="230" as="sourcePoint" />
            <mxPoint x="75" y="230" as="targetPoint" />
          </mxGeometry>
        </mxCell>
        <mxCell id="TfH3fV2TuEvvbLqG832e-48" value="" style="edgeStyle=orthogonalEdgeStyle;rounded=0;orthogonalLoop=1;jettySize=auto;html=1;endArrow=open;endFill=0;dashed=1;" edge="1" parent="1" source="TfH3fV2TuEvvbLqG832e-8" target="TfH3fV2TuEvvbLqG832e-9">
          <mxGeometry relative="1" as="geometry">
            <Array as="points">
              <mxPoint x="260" y="391" />
              <mxPoint x="260" y="240" />
            </Array>
          </mxGeometry>
        </mxCell>
        <mxCell id="TfH3fV2TuEvvbLqG832e-58" value="Роль" style="swimlane;fontStyle=1;align=center;verticalAlign=top;childLayout=stackLayout;horizontal=1;startSize=26;horizontalStack=0;resizeParent=1;resizeParentMax=0;resizeLast=0;collapsible=1;marginBottom=0;whiteSpace=wrap;html=1;" vertex="1" parent="1">
          <mxGeometry x="780" y="-130" width="160" height="60" as="geometry" />
        </mxCell>
        <mxCell id="TfH3fV2TuEvvbLqG832e-59" value="+ название: строка" style="text;strokeColor=none;fillColor=none;align=left;verticalAlign=top;spacingLeft=4;spacingRight=4;overflow=hidden;rotatable=0;points=[[0,0.5],[1,0.5]];portConstraint=eastwest;whiteSpace=wrap;html=1;" vertex="1" parent="TfH3fV2TuEvvbLqG832e-58">
          <mxGeometry y="26" width="160" height="26" as="geometry" />
        </mxCell>
        <mxCell id="TfH3fV2TuEvvbLqG832e-60" value="" style="line;strokeWidth=1;fillColor=none;align=left;verticalAlign=middle;spacingTop=-1;spacingLeft=3;spacingRight=3;rotatable=0;labelPosition=right;points=[];portConstraint=eastwest;strokeColor=inherit;" vertex="1" parent="TfH3fV2TuEvvbLqG832e-58">
          <mxGeometry y="52" width="160" height="8" as="geometry" />
        </mxCell>
        <mxCell id="TfH3fV2TuEvvbLqG832e-70" value="" style="edgeStyle=orthogonalEdgeStyle;rounded=0;orthogonalLoop=1;jettySize=auto;html=1;endArrow=none;endFill=0;" edge="1" parent="1" source="TfH3fV2TuEvvbLqG832e-58" target="TfH3fV2TuEvvbLqG832e-49">
          <mxGeometry relative="1" as="geometry">
            <mxPoint x="820" y="430" as="sourcePoint" />
            <mxPoint x="720" y="190" as="targetPoint" />
            <Array as="points">
              <mxPoint x="700" y="-120" />
              <mxPoint x="700" y="-13" />
            </Array>
          </mxGeometry>
        </mxCell>
        <mxCell id="TfH3fV2TuEvvbLqG832e-71" value="*" style="edgeLabel;html=1;align=center;verticalAlign=middle;resizable=0;points=[];" vertex="1" connectable="0" parent="TfH3fV2TuEvvbLqG832e-70">
          <mxGeometry x="0.8804" y="2" relative="1" as="geometry">
            <mxPoint x="-3" y="-19" as="offset" />
          </mxGeometry>
        </mxCell>
        <mxCell id="TfH3fV2TuEvvbLqG832e-72" value="*" style="edgeLabel;html=1;align=center;verticalAlign=middle;resizable=0;points=[];" vertex="1" connectable="0" parent="TfH3fV2TuEvvbLqG832e-70">
          <mxGeometry x="-0.673" y="-2" relative="1" as="geometry">
            <mxPoint x="16" y="12" as="offset" />
          </mxGeometry>
        </mxCell>
        <mxCell id="TfH3fV2TuEvvbLqG832e-73" value="" style="edgeStyle=orthogonalEdgeStyle;rounded=0;orthogonalLoop=1;jettySize=auto;html=1;endArrow=none;endFill=0;" edge="1" parent="1" source="TfH3fV2TuEvvbLqG832e-29" target="TfH3fV2TuEvvbLqG832e-69">
          <mxGeometry relative="1" as="geometry">
            <mxPoint x="790" y="-110" as="sourcePoint" />
            <mxPoint x="680" y="-3" as="targetPoint" />
            <Array as="points">
              <mxPoint x="720" y="20" />
              <mxPoint x="720" y="20" />
            </Array>
          </mxGeometry>
        </mxCell>
        <mxCell id="TfH3fV2TuEvvbLqG832e-74" value="*" style="edgeLabel;html=1;align=center;verticalAlign=middle;resizable=0;points=[];" vertex="1" connectable="0" parent="TfH3fV2TuEvvbLqG832e-73">
          <mxGeometry x="0.8804" y="2" relative="1" as="geometry">
            <mxPoint x="5" y="-12" as="offset" />
          </mxGeometry>
        </mxCell>
        <mxCell id="TfH3fV2TuEvvbLqG832e-75" value="*" style="edgeLabel;html=1;align=center;verticalAlign=middle;resizable=0;points=[];" vertex="1" connectable="0" parent="TfH3fV2TuEvvbLqG832e-73">
          <mxGeometry x="-0.673" y="-2" relative="1" as="geometry">
            <mxPoint y="-8" as="offset" />
          </mxGeometry>
        </mxCell>
        <mxCell id="TfH3fV2TuEvvbLqG832e-76" value="" style="html=1;verticalAlign=bottom;endArrow=open;dashed=1;endSize=8;elbow=vertical;rounded=0;edgeStyle=orthogonalEdgeStyle;" edge="1" parent="1" source="TfH3fV2TuEvvbLqG832e-24" target="TfH3fV2TuEvvbLqG832e-1">
          <mxGeometry relative="1" as="geometry">
            <mxPoint x="120" y="154" as="sourcePoint" />
            <mxPoint x="270" y="-70" as="targetPoint" />
            <Array as="points">
              <mxPoint x="270" y="40" />
              <mxPoint x="270" y="-70" />
              <mxPoint x="110" y="-70" />
            </Array>
          </mxGeometry>
        </mxCell>
        <mxCell id="TfH3fV2TuEvvbLqG832e-77" value="" style="html=1;verticalAlign=bottom;endArrow=open;dashed=1;endSize=8;elbow=vertical;rounded=0;edgeStyle=orthogonalEdgeStyle;" edge="1" parent="1" source="TfH3fV2TuEvvbLqG832e-24" target="TfH3fV2TuEvvbLqG832e-17">
          <mxGeometry relative="1" as="geometry">
            <mxPoint x="430" y="57" as="sourcePoint" />
            <mxPoint x="120" y="-10" as="targetPoint" />
            <Array as="points">
              <mxPoint x="720" y="47" />
            </Array>
          </mxGeometry>
        </mxCell>
        <mxCell id="TfH3fV2TuEvvbLqG832e-78" value="" style="html=1;verticalAlign=bottom;endArrow=open;dashed=1;endSize=8;elbow=vertical;rounded=0;edgeStyle=orthogonalEdgeStyle;" edge="1" parent="1" source="TfH3fV2TuEvvbLqG832e-24" target="TfH3fV2TuEvvbLqG832e-5">
          <mxGeometry relative="1" as="geometry">
            <mxPoint x="430" y="57" as="sourcePoint" />
            <mxPoint x="120" y="-10" as="targetPoint" />
            <Array as="points">
              <mxPoint x="380" y="50" />
            </Array>
          </mxGeometry>
        </mxCell>
        <mxCell id="TfH3fV2TuEvvbLqG832e-79" value="" style="edgeStyle=orthogonalEdgeStyle;rounded=0;orthogonalLoop=1;jettySize=auto;html=1;endArrow=none;endFill=0;" edge="1" parent="1" source="TfH3fV2TuEvvbLqG832e-6" target="TfH3fV2TuEvvbLqG832e-21">
          <mxGeometry relative="1" as="geometry">
            <mxPoint x="790" y="-110" as="sourcePoint" />
            <mxPoint x="680" y="-3" as="targetPoint" />
            <Array as="points">
              <mxPoint x="690" y="201" />
              <mxPoint x="690" y="140" />
              <mxPoint x="640" y="140" />
            </Array>
          </mxGeometry>
        </mxCell>
        <mxCell id="TfH3fV2TuEvvbLqG832e-80" value="1" style="edgeLabel;html=1;align=center;verticalAlign=middle;resizable=0;points=[];" vertex="1" connectable="0" parent="TfH3fV2TuEvvbLqG832e-79">
          <mxGeometry x="0.8804" y="2" relative="1" as="geometry">
            <mxPoint x="12" as="offset" />
          </mxGeometry>
        </mxCell>
        <mxCell id="TfH3fV2TuEvvbLqG832e-81" value="*" style="edgeLabel;html=1;align=center;verticalAlign=middle;resizable=0;points=[];" vertex="1" connectable="0" parent="TfH3fV2TuEvvbLqG832e-79">
          <mxGeometry x="-0.673" y="-2" relative="1" as="geometry">
            <mxPoint x="-9" y="-23" as="offset" />
          </mxGeometry>
        </mxCell>
        <mxCell id="TfH3fV2TuEvvbLqG832e-82" value="" style="edgeStyle=orthogonalEdgeStyle;rounded=0;orthogonalLoop=1;jettySize=auto;html=1;endArrow=none;endFill=0;" edge="1" parent="1" source="TfH3fV2TuEvvbLqG832e-44" target="TfH3fV2TuEvvbLqG832e-17">
          <mxGeometry relative="1" as="geometry">
            <mxPoint x="660" y="211" as="sourcePoint" />
            <mxPoint x="650" y="122" as="targetPoint" />
            <Array as="points">
              <mxPoint x="690" y="250" />
              <mxPoint x="690" y="250" />
            </Array>
          </mxGeometry>
        </mxCell>
        <mxCell id="TfH3fV2TuEvvbLqG832e-83" value="1" style="edgeLabel;html=1;align=center;verticalAlign=middle;resizable=0;points=[];" vertex="1" connectable="0" parent="TfH3fV2TuEvvbLqG832e-82">
          <mxGeometry x="0.8804" y="2" relative="1" as="geometry">
            <mxPoint x="-7" y="-8" as="offset" />
          </mxGeometry>
        </mxCell>
        <mxCell id="TfH3fV2TuEvvbLqG832e-84" value="*" style="edgeLabel;html=1;align=center;verticalAlign=middle;resizable=0;points=[];" vertex="1" connectable="0" parent="TfH3fV2TuEvvbLqG832e-82">
          <mxGeometry x="-0.673" y="-2" relative="1" as="geometry">
            <mxPoint y="-12" as="offset" />
          </mxGeometry>
        </mxCell>
        <mxCell id="TfH3fV2TuEvvbLqG832e-85" value="" style="edgeStyle=orthogonalEdgeStyle;rounded=0;orthogonalLoop=1;jettySize=auto;html=1;endArrow=open;endFill=0;dashed=1;" edge="1" parent="1" source="TfH3fV2TuEvvbLqG832e-8" target="TfH3fV2TuEvvbLqG832e-13">
          <mxGeometry relative="1" as="geometry">
            <mxPoint x="660" y="430" as="sourcePoint" />
            <mxPoint x="650" y="270" as="targetPoint" />
            <Array as="points">
              <mxPoint x="680" y="400" />
            </Array>
          </mxGeometry>
        </mxCell>
        <mxCell id="TfH3fV2TuEvvbLqG832e-87" value="" style="edgeStyle=orthogonalEdgeStyle;rounded=0;orthogonalLoop=1;jettySize=auto;html=1;endArrow=none;endFill=0;" edge="1" parent="1" source="TfH3fV2TuEvvbLqG832e-62" target="TfH3fV2TuEvvbLqG832e-9">
          <mxGeometry relative="1" as="geometry">
            <mxPoint x="830" y="519" as="sourcePoint" />
            <mxPoint x="820" y="430" as="targetPoint" />
            <Array as="points">
              <mxPoint x="980" y="305" />
              <mxPoint x="980" y="690" />
              <mxPoint x="80" y="690" />
            </Array>
          </mxGeometry>
        </mxCell>
        <mxCell id="TfH3fV2TuEvvbLqG832e-88" value="*" style="edgeLabel;html=1;align=center;verticalAlign=middle;resizable=0;points=[];" vertex="1" connectable="0" parent="TfH3fV2TuEvvbLqG832e-87">
          <mxGeometry x="0.8804" y="2" relative="1" as="geometry">
            <mxPoint x="12" y="-76" as="offset" />
          </mxGeometry>
        </mxCell>
        <mxCell id="TfH3fV2TuEvvbLqG832e-89" value="*" style="edgeLabel;html=1;align=center;verticalAlign=middle;resizable=0;points=[];" vertex="1" connectable="0" parent="TfH3fV2TuEvvbLqG832e-87">
          <mxGeometry x="-0.673" y="-2" relative="1" as="geometry">
            <mxPoint x="-38" y="-212" as="offset" />
          </mxGeometry>
        </mxCell>
        <mxCell id="TfH3fV2TuEvvbLqG832e-90" value="" style="edgeStyle=orthogonalEdgeStyle;rounded=0;orthogonalLoop=1;jettySize=auto;html=1;endArrow=open;endFill=0;dashed=1;" edge="1" parent="1" source="TfH3fV2TuEvvbLqG832e-20" target="TfH3fV2TuEvvbLqG832e-9">
          <mxGeometry relative="1" as="geometry">
            <mxPoint x="660" y="410" as="sourcePoint" />
            <mxPoint x="690" y="490" as="targetPoint" />
            <Array as="points">
              <mxPoint x="940" y="339" />
              <mxPoint x="940" y="640" />
              <mxPoint x="125" y="640" />
            </Array>
          </mxGeometry>
        </mxCell>
      </root>
    </mxGraphModel>
  </diagram>
</mxfile>
